<svg xmlns="http://www.w3.org/2000/svg" version="1.0" width="1600.000000pt" height="1200.000000pt" viewBox="0 0 1600.000000 1200.000000" preserveAspectRatio="xMidYMid meet">

<g transform="translate(0.000000,1200.000000) scale(0.100000,-0.100000)" fill="#2564cf" stroke="none">
<path d="M4880 9400 c-272 -20 -506 -128 -704 -326 -101 -102 -143 -157 -204 -274 -58 -109 -93 -208 -119 -336 -17 -84 -18 -210 -18 -2464 0 -2222 1 -2380 17 -2458 65 -309 214 -554 441 -723 204 -152 366 -209 652 -229 232 -16 4629 -8 4737 9 335 51 614 233 802 521 117 180 175 374 176 584 l0 89 -44 43 -43 44 -189 0 c-177 0 -190 -1 -220 -22 -45 -31 -61 -69 -78 -187 -25 -180 -109 -311 -262 -413 -122 -80 126 -73 -2534 -76 -1763 -2 -2389 0 -2430 8 -141 30 -302 155 -369 287 -65 130 -61 -44 -61 2524 0 1502 4 2355 10 2389 23 120 122 267 230 338 74 50 151 79 238 92 40 5 1004 9 2382 10 2462 1 2343 3 2453 -43 58 -25 149 -92 193 -143 89 -104 124 -193 149 -379 20 -146 110 -202 309 -193 206 10 275 80 262 268 -26 367 -203 673 -508 877 -164 109 -335 167 -538 182 -141 11 -4583 11 -4730 1z" fill="#2564cf"/>
<path d="M7146 7726 c-56 -21 -86 -45 -123 -99 -43 -64 -57 -137 -51 -277 4 -90 10 -126 27 -165 35 -79 94 -132 175 -157 17 -5 287 -11 600 -14 605 -6 610 -6 636 -53 6 -12 10 -118 10 -271 0 -273 -4 -295 -57 -319 -17 -8 -371 -11 -1182 -11 -1191 0 -1235 -1 -1311 -40 -56 -29 -107 -92 -126 -155 -25 -86 -17 -325 13 -381 26 -48 88 -107 140 -131 36 -17 160 -18 2253 -23 1774 -4 2219 -8 2237 -18 49 -27 53 -53 53 -312 0 -259 -4 -285 -53 -312 -17 -10 -219 -14 -937 -18 l-915 -5 -45 -27 c-61 -37 -94 -73 -122 -133 -21 -45 -23 -65 -23 -190 0 -164 14 -219 72 -279 48 -49 96 -73 174 -86 91 -14 2684 -14 2764 1 109 20 170 65 214 159 24 51 26 64 25 195 -1 155 -11 198 -64 265 -18 22 -55 51 -88 67 l-57 28 -300 5 c-329 5 -331 6 -360 66 -21 45 -22 478 -1 529 26 62 6 60 641 65 566 5 581 6 626 26 67 31 125 88 146 142 15 38 18 75 17 198 0 143 -1 154 -27 206 -28 56 -62 89 -127 123 -47 25 -10 24 -1730 29 -1136 3 -1491 6 -1511 16 -55 25 -58 45 -59 318 -1 266 1 279 47 310 25 16 97 17 1093 19 1478 4 1535 5 1588 27 58 25 128 105 147 169 17 59 20 247 4 317 -14 63 -64 132 -118 165 -40 24 -61 29 -156 35 -60 4 -1012 8 -2115 9 -1732 1 -2010 -1 -2044 -13z" fill="#2564cf"/>
</g>
</svg>